#N canvas 1634 761 918 646 10;
#X obj 493 25 import oscx;
#X obj 8 10 cnv 15 400 40 empty empty OSC 20 12 0 24 #dce4fc #404040
0;
pd dsp 1;
#X obj 600 320 print other;
#X text 10 65 OSC is a protocol for sharing data across networks and
applications. OSC stands for Open Sound Control. It was originally
designed to replace MIDI \, but it has caught on instead for inter-application
communication.;
#X obj 450 320 print theMatch;
#X floatatom 560 320 5 0 0 0 - - -, f 5;
#X obj 140 290 bng 32 250 50 0 empty empty match 18 8 0 12 #fcfcfc
#000000 #000000;
#X obj 460 210 bng 52 250 50 0 empty empty unmatched 18 8 0 12 #fcfcfc
#000000 #000000;
#X text 190 170 Receive from Bitwig;
#X obj 270 200 dumpOSC 5005;
#X obj 270 250 OSCroute /intruder;
#X text 120 20 Alarm patch;
#X obj 70 360 tgl 91 0 empty empty empty 17 7 0 10 #fcfcfc #000000
#000000 0 1;
#X obj 204 647 dac~;
#X obj 204 586 *~;
#X obj 274 586 *~;
#X obj 220 508 sig~ 1;
#X obj 220 533 -~;
#X obj 290 457 *~ 1e+06;
#X obj 290 480 clip~ 0 1;
#X obj 290 503 lop~ 70;
#X obj 290 434 osc~ 2;
#X obj 274 558 osc~ 800;
#X obj 204 558 osc~ 600;
#X obj 204 617 *~ 0.2*\$1;
#X obj 240 330 delay 5000;
#X obj 481 634 textfile;
#X floatatom 462 523 5 0 0 0 - - -, f 5;
#X floatatom 504 524 5 0 0 0 - - -, f 5;
#X floatatom 544 524 5 0 0 0 - - -, f 5;
#X text 461 691 then a 'clear' to start over;
#X text 427 676 then send it a 'write' statement;
#X text 439 659 1st construct the .txt file with 'add' statements;
#X obj 530 480 date;
#X floatatom 590 520 5 0 0 0 - - -, f 5;
#X floatatom 630 520 5 0 0 0 - - -, f 5;
#X floatatom 670 520 5 0 0 0 - - -, f 5;
#X msg 630 570 write /home/pi/log/log.txt cr;
#X msg 755 393 bang;
#X floatatom 770 480 0 0 0 0 - - -;
#X floatatom 762 503 0 0 0 0 - - -;
#X floatatom 755 526 0 0 0 0 - - -;
#X obj 755 422 time;
#X floatatom 778 457 0 0 0 0 - - -;
#X text 748 368 local;
#X obj 470 560 pack f f f f f f f f f f;
#X msg 460 590 add \$1 \$2 \$3 \$4 \$5 \$6 \$7 \$8 \$9 \$10;
#X obj 530 390 delay 200;
#X connect 6 0 12 0;
#X connect 6 0 25 0;
#X connect 6 0 33 0;
#X connect 6 0 38 0;
#X connect 6 0 47 0;
#X connect 9 0 10 0;
#X connect 10 0 4 0;
#X connect 10 0 6 0;
#X connect 10 1 2 0;
#X connect 10 1 5 0;
#X connect 10 1 7 0;
#X connect 12 0 24 1;
#X connect 14 0 24 0;
#X connect 15 0 24 0;
#X connect 16 0 17 0;
#X connect 17 0 14 1;
#X connect 18 0 19 0;
#X connect 19 0 20 0;
#X connect 20 0 17 1;
#X connect 20 0 15 1;
#X connect 21 0 18 0;
#X connect 22 0 15 0;
#X connect 23 0 14 0;
#X connect 24 0 13 0;
#X connect 24 0 13 1;
#X connect 25 0 12 0;
#X connect 27 0 45 0;
#X connect 28 0 45 1;
#X connect 29 0 45 2;
#X connect 33 0 27 0;
#X connect 33 1 28 0;
#X connect 33 2 29 0;
#X connect 33 3 34 0;
#X connect 33 4 35 0;
#X connect 33 5 36 0;
#X connect 34 0 45 3;
#X connect 35 0 45 4;
#X connect 36 0 45 5;
#X connect 37 0 26 0;
#X connect 38 0 42 0;
#X connect 39 0 45 8;
#X connect 40 0 45 7;
#X connect 41 0 45 6;
#X connect 42 0 41 0;
#X connect 42 1 40 0;
#X connect 42 2 39 0;
#X connect 42 3 43 0;
#X connect 43 0 45 9;
#X connect 45 0 46 0;
#X connect 46 0 26 0;
#X connect 47 0 37 0;
